{
  "accessors": [
    {
      "bufferView": 2,
      "componentType": 5126,
      "count": 47839,
      "max": [
        0.9584665298461914,
        0.3610609471797943,
        0.6560038924217224
      ],
      "min": [
        -0.7814194560050964,
        -0.2915961742401123,
        -1.0838748216629028
      ],
      "type": "VEC3"
    },
    {
      "bufferView": 2,
      "byteOffset": 574068,
      "componentType": 5126,
      "count": 47839,
      "max": [
        0.999998152256012,
        0.9999993443489075,
        0.9999526739120483
      ],
      "min": [
        -0.9999995231628418,
        -0.9999974370002747,
        -0.9999802708625793
      ],
      "type": "VEC3"
    },
    {
      "bufferView": 3,
      "componentType": 5126,
      "count": 47839,
      "max": [
        0.999996542930603,
        0.9998571872711182,
        0.9999793171882629,
        1.0
      ],
      "min": [
        -0.999999463558197,
        -0.9999736547470093,
        -0.9999993443489075,
        -1.0
      ],
      "type": "VEC4"
    },
    {
      "bufferView": 1,
      "componentType": 5126,
      "count": 47839,
      "max": [
        0.99692702293396,
        0.9999889731407166
      ],
      "min": [
        1.4999999621068127e-05,
        3.9999998989515007e-05
      ],
      "type": "VEC2"
    },
    {
      "bufferView": 1,
      "byteOffset": 382712,
      "componentType": 5126,
      "count": 47839,
      "max": [
        0.99692702293396,
        0.9999889731407166
      ],
      "min": [
        1.4999999621068127e-05,
        3.9999998989515007e-05
      ],
      "type": "VEC2"
    },
    {
      "bufferView": 1,
      "byteOffset": 765424,
      "componentType": 5126,
      "count": 47839,
      "max": [
        0.99692702293396,
        0.9999889731407166
      ],
      "min": [
        1.4999999621068127e-05,
        3.9999998989515007e-05
      ],
      "type": "VEC2"
    },
    {
      "bufferView": 1,
      "byteOffset": 1148136,
      "componentType": 5126,
      "count": 47839,
      "max": [
        0.99692702293396,
        0.9999889731407166
      ],
      "min": [
        1.4999999621068127e-05,
        3.9999998989515007e-05
      ],
      "type": "VEC2"
    },
    {
      "bufferView": 0,
      "componentType": 5125,
      "count": 261162,
      "type": "SCALAR"
    }
  ],
  "asset": {
    "extras": {
      "author": "Exploring Europe and Beyond (https://sketchfab.com/ExploringEuropeAndBeyond)",
      "license": "CC-BY-4.0 (http://creativecommons.org/licenses/by/4.0/)",
      "source": "https://sketchfab.com/3d-models/old-railroad-bumper-8k-textures-free-707f0aa701d2455b8ab5d0f30d44f9ab",
      "title": "Old railroad bumper [8K textures, FREE]"
    },
    "generator": "Sketchfab-15.36.0",
    "version": "2.0"
  },
  "bufferViews": [
    {
      "buffer": 0,
      "byteLength": 1044648,
      "name": "floatBufferViews",
      "target": 34963
    },
    {
      "buffer": 0,
      "byteLength": 1530848,
      "byteOffset": 1044648,
      "byteStride": 8,
      "name": "floatBufferViews",
      "target": 34962
    },
    {
      "buffer": 0,
      "byteLength": 1148136,
      "byteOffset": 2575496,
      "byteStride": 12,
      "name": "floatBufferViews",
      "target": 34962
    },
    {
      "buffer": 0,
      "byteLength": 765424,
      "byteOffset": 3723632,
      "byteStride": 16,
      "name": "floatBufferViews",
      "target": 34962
    }
  ],
  "buffers": [
    {
      "byteLength": 4489056,
      "uri": "scene.bin"
    }
  ],
  "extensionsUsed": [
    "KHR_materials_specular"
  ],
  "images": [
    {
      "uri": "textures/poly_0_baseColor.jpeg"
    },
    {
      "uri": "textures/poly_0_metallicRoughness.png"
    },
    {
      "uri": "textures/poly_0_normal.png"
    }
  ],
  "materials": [
    {
      "doubleSided": true,
      "extensions": {
        "KHR_materials_specular": {
          "specularColorFactor": [
            1.0,
            1.0,
            1.0
          ],
          "specularFactor": 0.3276200460801404
        }
      },
      "name": "poly_0",
      "normalTexture": {
        "index": 2
      },
      "pbrMetallicRoughness": {
        "baseColorTexture": {
          "index": 0
        },
        "metallicFactor": 0.0,
        "metallicRoughnessTexture": {
          "index": 1
        }
      }
    }
  ],
  "meshes": [
    {
      "name": "Object_0",
      "primitives": [
        {
          "attributes": {
            "NORMAL": 1,
            "POSITION": 0,
            "TANGENT": 2,
            "TEXCOORD_0": 3,
            "TEXCOORD_1": 4,
            "TEXCOORD_2": 5,
            "TEXCOORD_3": 6
          },
          "indices": 7,
          "material": 0,
          "mode": 4
        }
      ]
    }
  ],
  "nodes": [
    {
      "children": [
        1
      ],
      "matrix": [
        1.0,
        0.0,
        0.0,
        0.0,
        0.0,
        2.220446049250313e-16,
        -1.0,
        0.0,
        0.0,
        1.0,
        2.220446049250313e-16,
        0.0,
        0.0,
        0.0,
        0.0,
        1.0
      ],
      "name": "Sketchfab_model"
    },
    {
      "children": [
        2
      ],
      "name": "root"
    },
    {
      "children": [
        3
      ],
      "matrix": [
        1.0,
        0.0,
        0.0,
        0.0,
        0.0,
        2.220446049250313e-16,
        1.0,
        0.0,
        0.0,
        -1.0,
        2.220446049250313e-16,
        0.0,
        0.0,
        0.0,
        0.0,
        1.0
      ],
      "name": "GLTF_SceneRootNode"
    },
    {
      "children": [
        4
      ],
      "matrix": [
        1.0,
        0.0,
        0.0,
        0.0,
        0.0,
        1.0,
        0.0,
        0.0,
        0.0,
        0.0,
        1.0,
        0.0,
        -0.0885235145688057,
        0.0,
        0.2139318287372589,
        1.0
      ],
      "name": "railroad_bumber_0"
    },
    {
      "mesh": 0,
      "name": "Object_4"
    }
  ],
  "samplers": [
    {
      "magFilter": 9729,
      "minFilter": 9987,
      "wrapS": 10497,
      "wrapT": 10497
    }
  ],
  "scene": 0,
  "scenes": [
    {
      "name": "Sketchfab_Scene",
      "nodes": [
        0
      ]
    }
  ],
  "textures": [
    {
      "sampler": 0,
      "source": 0
    },
    {
      "sampler": 0,
      "source": 1
    },
    {
      "sampler": 0,
      "source": 2
    }
  ]
}
